<?xml version="1.0" standalone="no"?>
<!DOCTYPE svg PUBLIC "-//W3C//DTD SVG 20010904//EN"
 "http://www.w3.org/TR/2001/REC-SVG-20010904/DTD/svg10.dtd">
<svg version="1.0" xmlns="http://www.w3.org/2000/svg"
 width="2254.000000pt" height="2254.000000pt" viewBox="0 0 2254.000000 2254.000000"
 preserveAspectRatio="xMidYMid meet">
<metadata>
Created by potrace 1.14, written by Peter Selinger 2001-2017
</metadata>
<g transform="translate(0.000000,2254.000000) scale(0.100000,-0.100000)"
fill="#000000" stroke="none">
<path d="M6067 19974 c-1 -1 -49 -5 -107 -8 -58 -4 -136 -9 -175 -11 -38 -3
-104 -7 -145 -10 -77 -5 -128 -12 -141 -21 -4 -2 -10 -18 -14 -34 -4 -17 -11
-30 -16 -30 -5 0 -8 -3 -6 -8 2 -9 -26 -79 -55 -134 -10 -21 -19 -41 -20 -45
0 -5 -5 -19 -11 -33 -6 -14 -11 -27 -12 -30 -1 -3 -13 -31 -28 -64 -15 -32
-25 -61 -23 -65 4 -6 112 -6 321 -1 39 1 75 1 80 0 6 -1 15 -1 20 0 6 1 47 2
92 3 l82 0 13 31 c7 17 13 33 13 36 1 3 8 19 18 36 9 17 13 34 10 38 -4 3 0 6
7 6 7 0 11 3 7 6 -3 4 4 25 15 48 12 22 21 46 20 52 -1 6 5 17 13 24 8 7 15
19 15 26 0 8 4 22 10 32 21 38 60 133 60 147 0 11 -33 18 -43 9z"/>
<path d="M7218 19195 c-2 -1 -25 -5 -53 -8 -27 -4 -79 -11 -114 -16 -35 -6
-67 -10 -70 -9 -3 0 -8 -1 -11 -2 -3 -1 -16 -3 -30 -5 -14 -2 -47 -6 -75 -9
-27 -3 -63 -8 -80 -11 -72 -11 -173 -24 -230 -31 -16 -1 -32 -4 -35 -5 -11 -3
-26 -6 -46 -7 -16 -2 -28 -18 -49 -69 -29 -70 -66 -155 -90 -208 -16 -35 -38
-88 -40 -95 0 -3 -11 -27 -24 -55 -12 -27 -34 -79 -48 -115 -15 -36 -29 -69
-33 -75 -4 -5 -10 -18 -13 -28 -6 -17 -2 -18 56 -13 34 4 73 8 87 10 14 3 57
7 95 10 39 4 82 8 95 11 14 3 52 7 85 10 59 5 102 10 180 20 48 6 140 16 175
18 25 2 33 13 74 108 33 76 238 555 243 565 3 10 -39 17 -49 9z"/>
<path d="M5286 18373 c-1 -2 -61 -6 -132 -9 -71 -3 -149 -7 -174 -9 -25 -2
-71 -3 -103 -4 l-58 -1 -25 -57 c-14 -32 -30 -69 -36 -83 -6 -14 -17 -37 -25
-53 -8 -15 -12 -31 -9 -36 4 -5 2 -11 -3 -13 -8 -3 -81 -167 -95 -214 l-6 -21
292 3 c160 2 297 5 303 8 12 4 82 165 77 179 -1 4 2 7 7 7 9 0 47 90 43 103
-1 4 3 7 9 7 6 0 9 7 5 15 -3 8 -1 15 4 15 4 0 14 17 21 38 6 20 16 43 22 50
5 6 6 12 1 12 -5 0 -4 4 3 8 6 4 14 19 18 33 l6 26 -71 -1 c-39 0 -73 -2 -74
-3z"/>
<path d="M8256 18073 c-1 -1 -80 -5 -176 -8 -96 -3 -236 -7 -310 -10 -74 -3
-179 -7 -233 -9 l-99 -2 -60 -140 c-32 -76 -65 -152 -73 -169 -47 -106 -205
-478 -205 -483 0 -4 35 -6 77 -5 43 1 221 4 396 7 175 2 321 6 324 9 3 3 16 2
29 -3 13 -5 24 -6 24 -2 0 4 48 7 106 7 85 0 108 3 115 15 4 8 17 35 27 60 11
25 30 66 41 92 12 26 21 49 21 52 0 3 11 29 24 58 52 117 65 148 58 148 -4 0
-2 4 3 8 6 4 32 57 58 117 25 61 54 128 64 150 9 22 16 43 15 48 -1 4 3 7 9 7
5 0 7 5 4 10 -3 6 -2 10 2 10 5 0 9 9 10 20 2 19 -4 20 -123 17 -69 -1 -127
-3 -128 -4z"/>
<path d="M6540 17599 c-19 -5 -57 -11 -85 -14 -27 -3 -63 -8 -80 -10 -64 -11
-168 -24 -220 -30 -16 -1 -30 -4 -30 -5 0 -1 -16 -3 -35 -6 -19 -2 -87 -11
-150 -20 -63 -9 -128 -17 -145 -19 -29 -2 -33 -9 -157 -296 -70 -162 -134
-310 -142 -330 -18 -39 -20 -52 -8 -46 4 3 41 8 82 11 41 4 93 9 115 11 22 3
65 7 95 9 30 3 78 8 105 11 77 8 143 14 225 21 41 4 97 10 125 13 l49 6 128
295 c70 162 136 317 148 344 11 26 20 51 18 55 -2 4 -19 4 -38 0z"/>
<path d="M9856 17583 c-2 -3 -69 -7 -148 -9 -320 -9 -942 -30 -960 -33 -5 0
-8 -6 -8 -12 0 -5 -8 -29 -19 -52 -10 -23 -58 -134 -106 -247 -48 -113 -90
-209 -94 -215 -3 -5 -6 -12 -7 -15 -1 -7 -5 -15 -119 -280 -53 -124 -102 -239
-109 -255 l-13 -30 41 1 c23 1 118 5 211 9 94 4 208 9 255 11 47 3 96 4 110 4
31 -2 25 -2 135 5 50 3 149 8 220 10 72 3 168 7 215 9 47 2 97 4 111 5 22 1
30 10 49 54 12 28 30 70 40 92 33 74 53 120 55 125 1 3 9 23 19 45 10 22 25
58 34 80 8 22 20 43 26 47 6 4 8 8 4 8 -6 0 76 200 122 295 10 22 24 57 31 78
7 20 16 37 19 37 4 0 7 6 7 13 2 15 66 170 74 177 3 3 8 14 11 26 5 19 1 21
-63 19 -38 -1 -71 -4 -75 -7 -3 -4 -18 -2 -34 2 -16 4 -31 6 -34 3z"/>
<path d="M11627 16984 c-2 -2 -54 -6 -117 -9 -165 -9 -212 -12 -330 -20 -58
-4 -136 -8 -175 -10 -38 -2 -70 -4 -70 -5 0 -1 -29 -3 -65 -5 -119 -5 -304
-16 -364 -20 -32 -3 -108 -8 -170 -11 -96 -5 -171 -10 -212 -13 -9 -1 -37 -53
-49 -91 -1 -3 -8 -18 -15 -35 -7 -16 -14 -32 -15 -35 0 -3 -12 -27 -25 -55
-12 -27 -23 -56 -23 -62 0 -7 -4 -13 -8 -13 -7 0 -19 -36 -18 -54 1 -5 -3 -12
-8 -15 -7 -5 -47 -86 -49 -101 0 -3 -9 -25 -20 -50 -10 -25 -18 -48 -16 -52 1
-5 -2 -8 -8 -8 -5 0 -10 -5 -10 -11 0 -6 -7 -27 -16 -47 -27 -61 -51 -115 -67
-152 -8 -19 -26 -61 -40 -92 -14 -31 -23 -59 -19 -62 3 -3 1 -6 -5 -6 -6 0
-14 -12 -19 -27 -10 -37 -8 -31 -34 -88 -13 -27 -23 -53 -22 -57 1 -5 -2 -8
-6 -8 -5 0 -9 -6 -9 -12 0 -7 -10 -34 -22 -60 -20 -42 -22 -76 -3 -64 6 4 150
13 292 20 25 1 50 5 57 9 6 4 14 3 18 -3 4 -6 10 -8 15 -5 10 6 58 10 250 20
69 4 150 9 180 11 30 2 96 6 145 9 50 3 115 7 145 10 30 2 107 6 170 9 63 3
115 6 115 7 0 1 63 5 122 8 26 1 34 8 52 44 12 24 21 49 21 55 0 7 5 12 12 12
6 0 9 3 5 6 -3 4 3 25 15 48 11 22 20 42 19 44 0 1 8 23 20 50 48 107 70 162
70 172 0 3 8 13 16 23 9 9 13 17 10 17 -3 0 10 35 29 78 39 87 41 92 79 182
15 36 36 83 45 105 10 22 30 69 45 105 15 36 32 71 37 78 6 6 7 12 4 12 -4 0
-1 10 6 23 7 12 11 25 10 30 -1 4 3 7 8 7 6 0 9 3 8 8 -4 19 15 61 26 55 6 -3
8 -3 4 1 -3 4 2 28 12 52 11 24 18 44 17 45 -8 3 -48 5 -50 3z"/>
<path d="M4646 16843 c-2 -3 -346 -14 -431 -15 -42 -1 -69 -14 -59 -29 3 -5 0
-9 -5 -9 -6 0 -11 -4 -11 -9 0 -5 -8 -26 -17 -47 -9 -22 -16 -42 -15 -46 1 -5
-3 -8 -9 -8 -6 0 -9 -7 -5 -15 3 -8 1 -15 -4 -15 -6 0 -10 -4 -10 -9 0 -5 -8
-26 -17 -47 -9 -22 -17 -41 -18 -44 -1 -3 -13 -30 -27 -60 -30 -67 -41 -93
-42 -102 -1 -3 -4 -10 -8 -14 -20 -19 4 -23 170 -24 97 -1 232 -2 299 -3 l121
-2 15 30 c8 17 27 59 42 95 15 36 37 88 50 115 37 82 49 110 49 115 1 3 14 33
29 68 16 35 26 66 23 69 -5 5 -115 10 -120 6z"/>
<path d="M13822 16751 c-6 -15 -18 -44 -28 -66 -9 -22 -18 -42 -19 -45 -1 -3
-8 -18 -15 -35 -7 -16 -14 -36 -16 -44 -1 -8 -6 -17 -11 -20 -4 -3 -10 -15
-11 -26 -2 -11 -8 -23 -14 -26 -5 -3 -8 -10 -7 -15 1 -5 -8 -31 -21 -59 -13
-27 -23 -56 -23 -62 0 -7 -3 -13 -7 -13 -8 0 -45 -91 -42 -102 1 -5 -2 -8 -8
-8 -5 0 -10 -6 -10 -14 0 -8 -16 -50 -35 -93 -48 -104 -63 -139 -98 -223 -60
-142 -179 -418 -187 -432 -6 -10 -10 -25 -10 -33 0 -8 -4 -15 -10 -15 -5 0
-10 -6 -10 -14 0 -14 -38 -106 -45 -106 -7 0 -45 130 -45 155 0 14 -4 24 -8
21 -5 -3 -14 5 -19 17 -45 98 -50 116 -46 140 3 15 9 27 12 27 4 0 8 6 8 13 0
6 11 35 23 62 13 28 24 52 25 55 1 3 8 21 17 40 8 19 27 64 42 100 15 36 36
83 46 105 10 22 55 126 100 230 44 105 85 199 89 210 15 33 52 119 61 140 5
11 18 40 28 65 42 97 48 90 -75 85 -59 -2 -108 -4 -108 -5 0 0 -65 -3 -145 -6
-80 -3 -181 -7 -225 -9 -44 -2 -141 -6 -215 -9 -74 -3 -184 -8 -245 -11 -60
-3 -164 -8 -230 -10 -106 -5 -237 -11 -359 -18 l-38 -2 -60 -140 c-123 -289
-400 -931 -413 -961 -23 -51 -86 -196 -106 -247 -11 -27 -14 -45 -8 -41 6 3
39 8 73 9 33 2 97 6 141 10 44 4 107 9 140 11 33 2 87 6 120 9 33 3 89 7 125
10 172 12 219 15 275 20 33 4 75 7 92 8 l33 2 -6 -60 c-3 -33 -7 -80 -9 -103
-5 -59 -11 -62 -19 -8 -10 65 -23 65 -18 0 l4 -54 -34 -1 c-18 0 -55 -2 -83
-4 -27 -2 -106 -6 -175 -9 -187 -9 -315 -16 -410 -21 -47 -3 -143 -8 -215 -11
-71 -3 -130 -6 -131 -7 0 -1 -47 -110 -103 -242 -57 -132 -111 -258 -121 -280
-10 -22 -44 -101 -75 -175 -31 -74 -72 -168 -91 -208 -19 -41 -34 -77 -34 -81
0 -5 -6 -21 -14 -37 -12 -23 -133 -302 -153 -352 -6 -14 -2 -14 225 4 74 6 74
6 66 -18 -11 -35 -49 -91 -73 -108 -11 -8 -21 -24 -21 -36 0 -19 -6 -22 -52
-23 -155 -5 -221 -11 -228 -18 -4 -4 -40 -84 -80 -178 -40 -93 -135 -316 -212
-495 -77 -179 -146 -338 -153 -355 -7 -16 -23 -52 -36 -80 -12 -27 -23 -52
-24 -55 0 -3 -17 -43 -36 -90 -60 -139 -60 -132 3 -126 29 3 100 8 158 12 57
3 108 8 112 10 21 13 12 -20 -21 -72 -58 -93 -58 -91 -38 -75 9 7 17 12 18 10
7 -38 6 -49 -8 -60 -9 -8 -44 -15 -82 -16 -152 -4 -282 -11 -285 -14 -1 -2
-83 -191 -181 -419 -98 -228 -188 -437 -200 -465 -13 -27 -62 -142 -109 -255
-48 -113 -91 -213 -96 -222 -16 -28 -14 -29 53 -22 34 3 85 7 112 9 28 2 50 4
50 4 0 1 29 4 65 6 36 2 99 7 140 10 320 23 296 23 292 -3 -2 -15 2 -22 12
-22 20 0 21 -14 2 -29 -16 -13 -13 -85 4 -106 7 -9 -1 -12 -33 -12 -23 0 -94
-3 -157 -7 -169 -10 -394 -21 -572 -29 -26 -1 -51 -7 -56 -12 -5 -6 -89 -197
-187 -425 -98 -228 -186 -433 -196 -455 -28 -62 -140 -324 -144 -335 -2 -6
-14 -34 -44 -103 l-20 -47 112 5 c62 3 132 7 157 9 60 6 208 16 300 21 41 3
102 7 135 10 33 3 92 8 130 10 39 1 99 6 135 9 36 3 106 8 155 11 151 10 217
14 285 20 36 3 91 7 123 8 31 1 57 5 57 9 0 4 10 4 22 -1 13 -4 35 -5 50 0 26
7 27 6 17 -12 -6 -11 -17 -23 -25 -26 -9 -3 -12 -12 -8 -25 4 -13 -2 -25 -16
-38 -12 -10 -19 -23 -16 -29 6 -9 -51 -71 -66 -71 -5 0 -8 -5 -8 -11 0 -5 5
-7 12 -3 7 5 8 3 3 -7 -22 -35 -50 -58 -69 -57 -12 0 -86 -2 -166 -7 -80 -4
-188 -9 -240 -11 -157 -6 -319 -13 -435 -19 -260 -12 -406 -17 -497 -19 -54 0
-98 -3 -98 -6 0 -3 -33 -5 -74 -5 -70 1 -76 -1 -86 -25 -7 -14 -68 -155 -137
-315 -68 -159 -131 -306 -140 -325 -8 -19 -19 -44 -23 -55 -5 -11 -20 -46 -34
-78 -14 -32 -26 -60 -26 -62 0 -2 -11 -28 -24 -57 -43 -96 -63 -142 -91 -208
-15 -36 -33 -78 -40 -95 -63 -140 -73 -165 -67 -169 4 -2 21 -2 37 0 17 2 71
6 120 9 50 3 117 7 150 10 88 7 191 15 415 29 41 3 109 8 150 11 41 3 109 8
150 10 41 3 104 7 140 10 36 3 97 8 135 10 39 2 108 7 155 10 72 6 153 11 221
14 14 1 59 86 59 111 0 6 4 10 8 10 5 0 9 6 9 13 0 6 9 32 21 57 26 56 112
256 117 270 3 10 23 56 50 115 27 60 47 108 46 112 0 2 32 74 79 178 10 22 39
92 66 155 63 153 75 166 95 113 8 -22 6 -39 -11 -82 -21 -55 -21 -55 0 -36 20
18 20 18 18 -8 -1 -15 -5 -27 -9 -27 -11 0 -31 -58 -24 -69 3 -7 0 -8 -9 -5
-9 3 -16 2 -16 -4 0 -6 -3 -19 -6 -29 -6 -16 -5 -16 10 2 9 11 1 -10 -19 -48
-38 -73 -47 -111 -15 -62 23 35 27 17 5 -25 -8 -16 -16 -37 -18 -47 -2 -10
-20 -52 -39 -93 -20 -41 -38 -93 -40 -115 -3 -22 -3 -32 -1 -23 2 9 11 22 19
29 12 10 14 6 11 -28 -2 -22 -7 -45 -11 -51 -3 -6 -2 -14 4 -17 6 -4 10 -3 9
2 -1 4 0 10 1 13 1 3 3 14 5 25 7 51 15 79 25 89 8 8 10 -10 6 -64 -8 -100
-18 -139 -55 -207 -18 -32 -25 -49 -17 -39 9 11 18 17 21 14 9 -8 -16 -98 -27
-98 -5 0 -7 -4 -4 -9 3 -4 -3 -19 -14 -31 -11 -13 -20 -28 -20 -34 0 -6 -14
-28 -31 -49 -30 -36 -23 -53 9 -21 26 26 26 -1 0 -48 -13 -24 -31 -50 -41 -60
-10 -9 -19 -26 -20 -37 -1 -12 -5 -21 -10 -21 -4 0 -6 -4 -3 -9 3 -5 -6 -13
-22 -19 -21 -8 -33 -25 -56 -83 -16 -41 -35 -82 -42 -93 -7 -10 -10 -25 -7
-32 3 -8 1 -14 -5 -14 -6 0 -16 -15 -22 -34 -6 -19 -19 -52 -30 -73 -10 -21
-16 -41 -13 -45 2 -5 0 -8 -6 -8 -7 0 -32 -55 -36 -80 0 -3 -12 -30 -27 -60
-14 -30 -39 -86 -54 -125 -15 -38 -33 -79 -41 -90 -7 -11 -13 -27 -13 -37 0
-10 -4 -18 -8 -18 -5 0 -9 -6 -9 -12 0 -7 -12 -38 -25 -68 -14 -30 -45 -100
-68 -155 -46 -109 -57 -134 -91 -210 -12 -28 -23 -53 -23 -57 -1 -3 -4 -10 -8
-14 -5 -4 -8 -16 -8 -26 0 -10 -5 -18 -12 -18 -6 0 -8 -3 -5 -6 4 -4 0 -19 -8
-33 -19 -34 -39 -84 -37 -93 1 -5 -3 -8 -9 -8 -5 0 -8 -4 -4 -9 3 -5 15 -8 28
-6 25 5 121 15 182 20 22 2 74 6 115 10 296 26 672 33 980 20 213 -9 409 -23
453 -31 10 -2 48 -6 85 -9 37 -4 78 -8 92 -10 14 -2 43 -7 65 -9 52 -7 114
-16 145 -21 14 -3 41 -7 60 -10 19 -3 61 -10 92 -16 32 -5 70 -12 85 -15 16
-2 39 -7 53 -11 14 -3 32 -7 40 -8 8 -1 29 -5 45 -9 17 -3 44 -9 60 -12 49
-10 60 -12 60 -15 0 -1 9 -3 20 -5 54 -8 254 -58 285 -71 8 -3 18 -5 22 -5 4
1 27 -4 50 -12 42 -14 183 -56 203 -61 6 -1 17 -5 25 -8 8 -4 58 -20 110 -37
90 -30 189 -65 255 -91 17 -7 35 -13 40 -14 19 -5 270 -109 275 -115 3 -3 12
-6 20 -8 8 -2 33 -11 55 -22 22 -11 67 -31 100 -46 114 -50 456 -224 555 -282
19 -11 59 -33 88 -48 28 -15 52 -31 52 -36 0 -4 5 -8 11 -8 12 0 90 -46 201
-117 37 -24 72 -43 78 -43 5 0 10 -3 10 -8 0 -4 20 -18 45 -32 25 -14 45 -28
45 -31 0 -4 14 -12 30 -19 17 -7 30 -16 30 -21 0 -5 4 -9 9 -9 6 0 62 -37 126
-83 64 -45 127 -89 138 -97 12 -8 49 -35 82 -60 33 -25 64 -48 70 -53 25 -19
183 -141 215 -165 19 -15 42 -35 52 -44 10 -10 20 -18 23 -18 3 0 17 -10 30
-22 13 -13 36 -32 50 -43 30 -23 56 -46 113 -97 23 -21 43 -38 46 -38 3 0 16
-10 28 -23 13 -12 46 -41 73 -65 183 -160 644 -612 835 -821 58 -63 116 -127
130 -142 14 -15 48 -53 76 -85 28 -33 63 -72 77 -89 21 -23 26 -26 27 -12 0 9
5 17 12 17 6 0 9 3 6 6 -4 3 7 33 22 67 41 90 63 140 66 156 1 8 6 17 11 20 4
3 9 13 11 21 2 8 12 34 22 57 11 24 20 45 20 47 0 2 10 25 22 52 12 27 23 51
23 54 1 3 13 30 26 60 14 30 38 87 54 125 16 39 35 79 42 90 7 11 13 27 13 37
0 10 4 18 8 18 5 0 9 6 9 13 0 6 12 38 26 70 15 32 27 59 27 61 0 2 10 25 22
52 12 27 23 51 23 54 0 3 8 21 17 40 17 36 50 111 53 120 1 3 9 23 19 45 10
22 25 58 34 80 8 22 23 51 31 65 9 13 15 24 13 25 -4 0 11 41 37 98 10 23 22
52 25 65 4 12 12 22 17 22 5 0 9 6 8 13 -1 6 3 25 9 40 7 16 12 33 12 38 0 5
5 9 10 9 6 0 10 7 10 14 0 8 16 49 35 92 19 42 35 83 35 90 0 8 5 14 10 14 6
0 10 6 10 14 0 7 14 44 31 82 32 70 51 115 54 124 0 3 11 27 23 54 13 28 25
60 28 73 4 13 10 23 15 23 5 0 8 3 7 7 -1 5 3 19 9 33 53 127 66 157 75 168 6
6 7 12 4 12 -4 0 0 12 8 27 8 16 43 93 77 173 34 80 69 163 79 185 16 36 34
80 92 215 10 25 23 53 28 62 6 10 10 25 10 33 0 8 5 15 10 15 6 0 9 3 8 7 -1
5 4 21 10 36 7 16 12 33 12 38 0 5 4 9 8 9 4 0 9 10 9 22 1 13 7 24 13 26 5 2
10 12 10 22 0 10 5 22 10 25 6 4 8 11 5 16 -4 5 -1 9 4 9 6 0 11 9 11 19 0 11
5 23 10 26 6 4 8 11 5 16 -4 5 -1 9 4 9 6 0 10 3 9 7 -1 9 5 25 34 90 18 41
39 93 43 103 1 3 10 23 20 45 10 22 19 42 20 45 3 9 26 63 40 95 32 70 48 110
47 118 -1 4 2 7 8 7 6 0 9 3 8 8 -1 7 13 47 32 87 31 68 128 293 135 315 1 3
11 26 23 53 12 26 22 49 22 52 1 2 14 33 29 67 50 110 64 143 67 157 1 8 9 18
16 22 7 5 10 9 6 9 -6 0 2 26 35 103 7 15 15 27 19 27 5 0 8 6 8 14 0 11 28
84 72 186 6 14 12 27 13 30 0 3 11 26 23 52 22 47 44 98 47 108 0 3 11 27 23
54 13 28 25 60 28 73 4 13 10 23 15 23 5 0 9 7 9 16 0 8 5 25 12 37 7 12 13
27 14 33 1 6 13 35 27 65 42 89 71 154 72 159 14 49 19 60 28 60 6 0 8 3 4 6
-3 4 2 23 13 44 11 21 16 40 13 44 -4 3 -1 6 5 6 7 0 12 9 12 20 0 11 5 20 12
20 6 0 8 3 5 6 -3 4 -1 16 5 28 7 11 13 23 13 26 1 3 8 21 17 40 8 19 28 64
43 100 15 36 36 85 48 110 11 25 22 50 23 55 1 6 15 37 30 70 15 33 28 62 29
65 0 3 11 27 23 54 12 27 22 51 22 54 0 3 11 28 24 56 14 29 26 58 28 66 2 8
9 21 16 28 6 7 12 20 12 29 0 8 6 27 14 41 8 15 26 56 41 92 15 36 36 83 45
105 10 22 35 81 56 130 21 50 44 101 51 114 6 14 10 28 7 33 -3 4 -1 8 5 8 9
0 37 68 33 83 -1 4 2 7 8 7 6 0 9 3 8 8 -1 4 5 23 14 42 16 32 49 109 53 120
5 15 27 66 47 108 12 26 23 56 25 67 2 11 8 21 13 23 6 2 10 8 10 13 0 5 7 26
16 47 10 20 18 42 19 48 2 6 17 39 33 75 17 35 34 76 38 92 3 15 10 27 15 27
5 0 9 6 9 13 0 18 93 231 105 239 5 4 7 8 3 8 -9 0 42 122 55 131 5 3 8 9 7
13 -1 4 6 26 16 49 10 23 18 44 19 47 1 3 9 23 19 45 34 77 39 90 38 98 -1 4
2 7 8 7 6 0 9 3 8 8 -1 4 3 17 10 30 7 12 10 22 7 22 -3 0 2 11 11 25 9 14 12
25 8 25 -5 0 -4 4 3 8 6 4 13 16 15 27 1 11 9 26 16 33 6 7 12 20 12 27 0 8 9
30 20 50 11 19 17 35 15 35 -3 0 3 12 12 27 10 15 17 28 16 30 -1 1 7 24 18
50 36 83 42 98 45 111 1 7 10 24 18 37 9 13 17 34 19 45 2 12 8 25 13 28 5 4
10 14 12 22 3 15 108 265 136 325 34 72 60 138 58 148 -1 4 2 7 7 7 8 0 23 41
20 56 0 4 5 10 13 15 7 5 13 12 14 16 5 35 18 73 25 73 5 0 9 6 9 14 0 8 14
45 32 83 17 37 32 70 33 73 10 29 56 136 70 161 8 14 12 29 8 33 -3 3 -1 6 6
6 7 0 11 6 8 13 -2 6 2 19 10 29 8 9 16 22 17 30 4 19 14 43 52 126 19 41 34
77 34 81 0 5 6 21 14 37 20 39 56 124 54 127 0 1 9 21 20 44 l22 42 -34 40
c-19 22 -40 46 -47 54 -8 8 -42 45 -76 83 -179 200 -452 474 -719 719 -54 50
-108 100 -121 112 -12 12 -29 26 -36 30 -8 4 -41 31 -73 60 -32 29 -115 98
-184 153 -69 56 -134 109 -145 118 -11 10 -50 39 -87 66 -38 28 -68 54 -68 59
0 4 -4 5 -10 2 -5 -3 -10 -2 -10 2 0 5 -20 22 -44 37 -24 15 -52 35 -63 44
-10 9 -47 37 -83 61 -36 25 -67 47 -70 51 -21 23 -424 280 -605 385 -55 32
-102 61 -105 64 -3 3 -36 22 -75 42 -38 20 -117 61 -175 91 -140 74 -214 112
-220 113 -3 1 -48 22 -101 48 -53 26 -101 47 -108 47 -6 0 -11 4 -11 10 0 5
-3 9 -7 8 -8 -2 -46 14 -129 54 -22 10 -47 20 -56 22 -9 1 -24 8 -34 16 -9 8
-19 14 -21 12 -2 -1 -17 5 -33 13 -17 9 -30 13 -30 10 0 -3 -10 0 -22 7 -13 7
-25 13 -28 14 -7 1 -35 12 -133 52 -49 19 -95 35 -103 35 -8 0 -14 4 -14 9 0
4 -9 8 -20 8 -11 0 -28 5 -38 10 -16 10 -170 66 -203 74 -9 3 -61 19 -115 37
-55 18 -104 34 -110 35 -10 2 -144 42 -174 52 -8 3 -24 7 -35 9 -11 2 -31 8
-45 13 -14 5 -37 12 -52 14 -15 3 -33 8 -38 11 -6 4 -23 9 -38 11 -41 7 -53
10 -102 24 -88 24 -371 87 -485 107 -44 8 -60 11 -60 13 0 1 -16 3 -35 5 -19
2 -36 4 -37 5 -2 1 -11 3 -20 4 -10 1 -27 5 -38 9 -11 3 -40 9 -65 12 -25 3
-56 7 -70 9 -93 16 -210 33 -280 41 -30 3 -68 9 -85 11 -16 3 -46 7 -65 9 -19
1 -57 5 -85 9 -55 6 -159 15 -245 21 -30 2 -77 7 -105 9 -134 14 -435 27 -711
30 l-171 2 -11 -25z m-372 -1501 c8 5 18 6 23 3 13 -8 85 -9 134 -2 23 3 40 3
38 -1 -2 -3 35 -6 83 -5 48 1 99 -2 115 -6 15 -4 27 -4 27 1 0 6 10 6 23 1 13
-5 30 -5 37 -1 8 5 19 6 24 2 6 -3 40 -8 76 -9 36 -2 85 -5 110 -6 25 -1 51
-6 58 -10 6 -5 12 -5 12 0 0 8 60 9 76 1 8 -4 45 -8 129 -12 17 -1 36 -6 44
-10 10 -7 12 -5 6 4 -6 9 -4 11 5 5 12 -7 76 -15 148 -17 17 -1 32 -4 32 -8 0
-10 44 -6 52 5 5 6 8 5 8 -4 0 -7 6 -11 15 -8 8 4 17 2 20 -3 3 -5 19 -7 35
-5 17 2 29 1 26 -3 -2 -4 17 -8 42 -9 46 -2 97 -9 97 -12 0 -1 12 -4 28 -6 16
-2 27 1 27 8 0 9 3 8 8 -1 5 -7 18 -14 30 -17 12 -2 27 -7 32 -10 6 -3 10 -1
10 6 0 8 4 8 13 1 6 -5 32 -12 57 -15 25 -3 52 -8 62 -12 9 -4 31 -8 50 -10
18 -2 33 -4 33 -5 0 -3 41 -11 63 -12 12 0 22 -5 22 -11 0 -6 3 -7 7 -4 3 4
12 2 20 -4 9 -9 13 -8 13 0 0 9 5 9 21 1 20 -11 51 -19 94 -24 12 -1 26 -6 33
-10 7 -4 22 -9 34 -12 13 -3 28 -6 33 -7 6 -2 16 -6 23 -11 7 -4 16 -5 19 -2
3 3 19 -2 35 -10 16 -8 32 -13 36 -10 4 2 25 -5 47 -16 22 -11 52 -20 68 -20
31 1 37 -23 8 -33 -10 -3 -43 -28 -72 -56 -48 -45 -50 -48 -18 -30 20 12 39
21 43 21 7 0 -214 -220 -263 -262 -17 -14 -31 -23 -31 -20 0 4 -5 0 -10 -8
-15 -24 -291 -19 -454 9 -71 12 -132 24 -136 26 -3 2 -26 6 -51 9 -24 4 -60 9
-79 12 -19 3 -41 6 -47 6 -21 2 -15 19 15 44 32 28 29 29 -28 9 -51 -18 -110
-27 -110 -16 0 4 6 13 13 20 10 10 7 10 -16 2 -27 -10 -62 -19 -102 -26 -11
-2 -22 -4 -25 -5 -3 -1 -32 -2 -64 -2 -67 1 -96 17 -134 73 -12 19 -29 42 -37
52 -8 9 -15 20 -15 23 0 3 -7 12 -15 20 -20 20 -20 -1 0 -36 26 -46 15 -77
-17 -47 -30 27 -59 38 -72 28 -7 -6 -15 -9 -18 -6 -2 3 -27 8 -54 11 -27 3
-62 8 -79 10 -16 2 -50 7 -75 10 -25 3 -55 7 -68 10 -13 2 -49 7 -80 10 -31 4
-88 15 -127 25 -38 11 -76 21 -82 22 -23 5 -139 86 -159 110 -28 34 -64 85
-64 92 0 3 -8 14 -17 25 -10 10 -31 45 -48 77 -16 32 -38 71 -49 87 l-19 28
41 -4 c23 -2 42 0 42 3 0 4 12 4 26 0 38 -10 95 -2 87 13 -3 6 2 3 13 -6 13
-11 24 -14 34 -8z m4037 -804 c170 -73 341 -156 370 -178 7 -5 16 -7 22 -4 5
3 11 0 14 -8 3 -8 22 -19 41 -26 20 -6 36 -16 36 -21 0 -6 5 -7 10 -4 6 3 10
1 10 -4 0 -6 4 -11 10 -11 5 0 60 -31 122 -68 62 -37 124 -74 138 -82 23 -15
34 -22 64 -47 7 -6 17 -9 20 -6 3 4 6 1 6 -5 0 -7 7 -12 15 -12 8 0 15 -5 15
-10 0 -6 8 -14 18 -17 22 -8 76 -46 80 -55 2 -5 8 -8 14 -8 5 0 15 -6 22 -12
8 -7 24 -20 36 -28 12 -8 28 -20 34 -25 6 -6 49 -39 94 -74 46 -34 92 -70 101
-79 10 -10 27 -24 37 -32 99 -77 198 -167 356 -322 103 -101 138 -141 131
-150 -5 -7 -25 -51 -44 -98 -19 -47 -37 -86 -41 -88 -5 -2 -8 -10 -8 -18 0 -7
-13 -43 -30 -79 -16 -36 -30 -68 -30 -70 0 -2 -13 -33 -29 -67 -15 -35 -54
-124 -86 -198 -61 -144 -85 -201 -116 -266 -10 -23 -19 -44 -19 -47 0 -4 -12
-32 -26 -64 -35 -80 -47 -107 -84 -193 -18 -41 -38 -88 -45 -105 -46 -104
-167 -387 -170 -395 -4 -13 -27 -66 -49 -113 -13 -29 -54 -124 -91 -211 -37
-88 -71 -166 -75 -175 -21 -40 -58 -131 -53 -131 3 0 1 -6 -5 -12 -5 -7 -29
-58 -52 -113 -23 -55 -53 -122 -65 -150 -12 -27 -29 -67 -36 -87 -7 -21 -17
-38 -21 -38 -4 0 -7 -3 -6 -7 1 -9 -1 -16 -58 -148 -40 -95 -65 -154 -69 -165
-15 -44 -20 -39 -56 66 -21 60 -38 114 -39 121 0 6 -5 24 -11 40 -6 15 -11 30
-11 33 -34 158 -47 249 -63 440 -15 179 -17 186 -133 515 -28 78 -53 154 -56
170 -3 17 -8 41 -12 55 -4 16 4 8 25 -22 34 -53 50 -64 27 -20 -15 29 -46 133
-50 167 -1 11 -5 26 -10 34 -5 7 -11 30 -13 50 l-5 36 23 -20 c13 -11 27 -24
30 -29 17 -23 16 19 -2 94 -10 46 -17 85 -15 87 2 3 1 17 -4 32 -4 16 -4 35 1
42 7 11 9 10 9 -3 0 -10 4 -18 9 -18 5 0 13 -9 16 -21 4 -11 9 -18 12 -15 3 2
-5 38 -18 78 -13 40 -24 75 -24 78 -1 3 -4 19 -8 35 -4 17 -9 44 -12 60 -3 17
-10 53 -15 80 -5 28 -12 61 -15 75 -6 24 -6 24 9 6 21 -26 20 -17 -3 38 -11
25 -22 65 -25 89 -10 84 -19 132 -28 150 -13 26 3 20 29 -10 l23 -28 -7 30
c-3 16 -19 52 -35 79 -26 43 -100 191 -136 269 -7 16 -8 26 -2 22 16 -10 12 1
-14 40 -28 41 -61 126 -106 275 -18 58 -36 116 -42 130 -20 49 -18 70 16 162
35 94 49 139 48 148 0 3 4 12 8 20 4 8 11 32 14 54 4 21 8 42 11 46 2 4 7 25
10 46 2 21 7 50 10 64 6 30 15 102 19 147 1 18 5 35 8 39 4 3 4 12 1 20 -3 8
-1 20 5 27 5 6 13 27 17 45 3 17 11 32 16 32 17 0 9 35 -12 53 -16 14 -20 28
-18 72 1 30 6 55 10 55 4 0 43 -15 86 -34z m123 -2839 c0 -5 -4 -5 -10 -2 -5
3 -10 14 -10 23 0 15 2 15 10 2 5 -8 10 -19 10 -23z"/>
<path d="M7757 16484 c-2 -2 -73 -6 -158 -9 -342 -12 -441 -16 -589 -22 -85
-3 -177 -5 -203 -5 -59 0 -55 5 -142 -198 -36 -85 -70 -164 -75 -175 -5 -11
-30 -69 -56 -130 -25 -60 -58 -135 -71 -165 -68 -153 -81 -137 109 -133 90 2
310 5 490 6 181 1 328 4 328 7 0 3 17 5 38 3 21 -1 43 1 49 5 5 4 42 81 81
172 39 91 116 270 171 399 56 129 100 235 98 237 -5 5 -66 12 -70 8z"/>
<path d="M5889 16076 c-2 -2 -31 -7 -64 -11 -33 -4 -71 -9 -85 -11 -14 -2 -41
-6 -60 -9 -19 -2 -51 -7 -70 -9 -50 -6 -109 -14 -155 -21 -49 -7 -85 -12 -148
-19 -26 -3 -60 -8 -75 -10 -15 -3 -47 -8 -72 -11 -25 -4 -48 -10 -51 -13 -4
-4 -26 -52 -49 -107 -23 -55 -51 -118 -60 -140 -19 -42 -169 -391 -177 -413
-4 -10 4 -12 38 -7 53 7 94 12 174 20 33 4 92 10 130 15 39 4 77 8 85 8 8 0
31 3 50 6 19 2 60 7 90 11 30 3 69 7 85 9 17 2 57 7 90 11 33 3 62 9 66 13 3
4 55 124 117 267 61 143 127 297 146 343 31 72 33 82 17 82 -10 0 -20 -2 -22
-4z"/>
<path d="M9215 15981 c-2 -1 -66 -5 -142 -7 -154 -5 -331 -11 -503 -19 -63 -2
-185 -7 -270 -11 -140 -5 -225 -9 -241 -13 -6 -1 -29 -52 -74 -161 -15 -36
-35 -83 -45 -105 -10 -22 -40 -89 -65 -150 -26 -60 -53 -124 -60 -140 -28 -62
-235 -547 -235 -550 0 -2 44 -2 98 1 53 2 162 6 242 9 204 9 334 14 495 19 77
3 187 8 245 11 58 3 133 6 167 7 34 1 67 4 72 8 6 3 58 114 114 246 186 428
367 851 367 856 0 5 -160 5 -165 -1z"/>
<path d="M10917 15383 c-2 -1 -41 -5 -88 -8 -46 -3 -120 -7 -164 -10 -44 -3
-125 -8 -180 -10 -55 -3 -138 -7 -185 -10 -47 -3 -121 -7 -165 -10 -44 -2
-115 -7 -158 -10 -42 -3 -114 -8 -160 -10 -195 -10 -304 -17 -327 -20 -14 -2
-34 -4 -46 -4 -21 -1 -33 -22 -106 -196 -17 -38 -41 -94 -54 -123 -13 -29 -24
-55 -24 -58 0 -3 -9 -24 -19 -47 -25 -54 -340 -785 -352 -814 -8 -21 -6 -22
34 -18 23 2 94 7 157 10 63 3 151 8 195 11 44 3 109 7 145 9 67 4 170 11 300
20 41 3 116 7 165 10 50 3 128 7 175 10 171 11 276 16 334 19 51 2 60 5 71 26
7 14 68 153 135 310 67 157 129 303 139 325 96 214 252 588 246 593 -7 7 -63
11 -68 5z"/>
<path d="M4015 15261 c-2 -2 -41 -5 -87 -6 -46 -2 -146 -6 -223 -10 -77 -4
-159 -8 -182 -8 -41 -1 -43 -3 -63 -52 -12 -27 -25 -59 -30 -70 -37 -83 -50
-115 -50 -124 0 -6 -4 -11 -8 -11 -5 0 -9 -6 -9 -12 0 -7 -10 -35 -23 -63 -50
-112 -58 -130 -54 -136 1 -3 135 -4 296 -2 258 3 294 5 305 19 7 10 10 21 7
25 -3 5 0 9 7 9 7 0 10 3 6 6 -3 4 0 19 9 35 8 16 14 30 12 31 -1 2 11 26 26
53 16 28 27 50 25 50 -1 0 6 21 16 48 10 26 21 47 26 47 5 0 6 7 3 15 -4 8 -1
15 5 15 6 0 10 3 9 8 -2 9 10 40 28 74 24 44 19 64 -17 63 -17 0 -32 -2 -34
-4z"/>
<path d="M6987 14964 c-1 -1 -81 -5 -177 -9 -223 -9 -256 -11 -271 -20 -7 -5
-10 -4 -6 1 3 5 -14 8 -36 6 -23 -1 -82 -4 -132 -7 -200 -10 -268 -15 -272
-18 -3 -4 -315 -727 -333 -774 l-9 -21 267 4 c147 3 380 6 517 9 138 2 259 4
271 4 15 1 26 12 36 39 9 20 88 205 177 411 88 205 161 375 161 378 0 4 -189
1 -193 -3z"/>
<path d="M5219 14486 c-2 -2 -35 -7 -74 -10 -38 -4 -77 -8 -85 -11 -8 -2 -37
-6 -65 -10 -27 -3 -77 -10 -110 -15 -87 -13 -124 -18 -180 -26 -27 -3 -61 -8
-75 -10 -83 -12 -128 -17 -152 -18 -16 -1 -28 -4 -28 -8 0 -4 -7 -5 -15 -2
-10 4 -15 0 -15 -15 0 -12 -4 -21 -10 -21 -5 0 -10 -5 -10 -11 0 -12 -68 -173
-146 -346 -13 -29 -26 -64 -30 -78 -3 -14 -10 -25 -15 -25 -5 0 -8 -3 -7 -7 1
-9 -6 -29 -32 -88 -37 -85 -39 -82 37 -73 38 4 89 10 116 13 98 11 153 17 187
21 19 3 55 6 80 9 25 2 65 6 90 10 25 3 68 7 96 9 28 2 56 6 60 9 5 3 24 4 41
3 60 -4 70 9 164 230 49 115 94 218 99 229 28 61 100 231 100 237 0 8 -14 11
-21 4z"/>
<path d="M8678 14455 c-2 -2 -102 -6 -223 -10 -490 -14 -1019 -32 -1043 -34
-7 0 -20 -18 -29 -38 -8 -21 -23 -56 -33 -78 -10 -22 -59 -137 -110 -255 -51
-118 -100 -233 -110 -255 -10 -22 -46 -105 -80 -185 -34 -80 -67 -158 -75
-175 -41 -92 -48 -117 -34 -125 7 -5 17 -6 22 -3 5 3 59 7 120 9 62 2 173 6
247 9 74 3 187 8 250 10 285 10 361 14 369 20 6 3 12 1 16 -5 4 -6 11 -8 16
-4 6 3 68 8 137 11 70 3 130 8 133 12 3 3 30 62 59 131 29 69 64 150 77 180
45 101 51 115 73 170 13 30 31 73 41 95 26 58 219 507 219 510 0 4 -39 13 -42
10z"/>
<path d="M10277 13864 c-2 -2 -45 -6 -97 -9 -52 -3 -129 -7 -170 -10 -41 -3
-113 -7 -160 -10 -118 -7 -264 -16 -335 -21 -132 -8 -214 -13 -300 -18 -49 -3
-135 -9 -190 -12 -104 -7 -192 -11 -235 -13 -21 -1 -29 -9 -40 -38 -7 -21 -25
-65 -41 -98 -15 -33 -39 -89 -54 -125 -15 -36 -35 -83 -45 -105 -10 -22 -43
-101 -75 -175 -31 -74 -65 -153 -75 -175 -26 -56 -230 -535 -230 -539 0 -2 24
-2 53 0 28 2 99 6 157 9 130 7 229 13 345 20 50 3 131 7 180 10 96 5 206 12
320 20 39 3 115 7 170 10 55 3 129 7 165 11 36 3 91 7 123 8 32 2 59 5 61 7 2
3 452 1046 532 1235 5 10 -51 26 -59 18z"/>
<path d="M3096 13643 c-3 -3 -186 -14 -270 -17 -23 -1 -43 -7 -48 -16 -13 -22
-188 -433 -188 -441 0 -8 597 -5 604 2 9 8 186 426 186 437 0 7 5 12 10 12 6
0 10 7 10 15 0 13 -23 14 -151 12 -83 -1 -152 -3 -153 -4z"/>
<path d="M6276 13363 c-1 -1 -85 -5 -186 -8 -102 -4 -241 -9 -310 -11 -69 -3
-177 -6 -240 -7 -63 -1 -120 -7 -126 -12 -9 -9 -344 -775 -344 -787 0 -2 72
-3 160 -3 88 0 160 2 160 5 0 3 123 6 273 6 149 1 318 3 374 4 l102 2 17 42
c10 22 18 43 19 46 2 5 17 41 38 90 5 14 10 28 9 33 -1 4 3 7 9 7 5 0 8 4 4 9
-3 5 -1 12 5 16 6 4 8 11 5 16 -4 5 -2 9 3 9 5 0 13 10 17 23 4 12 8 27 10 32
3 9 88 205 130 300 7 17 24 56 38 87 14 31 23 59 19 62 -3 3 1 6 8 6 7 0 10 3
7 7 -4 3 -2 12 4 19 9 11 -10 13 -96 11 -59 -1 -108 -3 -109 -4z"/>
<path d="M4490 12872 c-14 -2 -32 -5 -40 -8 -8 -3 -37 -7 -65 -10 -27 -2 -61
-5 -75 -7 -60 -9 -128 -19 -160 -23 -19 -3 -51 -7 -70 -10 -19 -2 -66 -8 -105
-14 -165 -24 -192 -28 -221 -29 -20 -1 -38 -32 -83 -146 -5 -11 -20 -45 -33
-75 -91 -200 -187 -435 -181 -441 5 -5 58 -2 118 6 61 8 139 17 175 20 36 4
79 8 95 10 17 2 54 6 83 9 114 13 158 18 187 22 17 2 54 6 83 8 30 3 55 6 55
8 1 2 10 19 19 38 20 41 40 87 97 225 23 55 48 114 56 130 21 47 125 289 125
291 0 3 -16 2 -60 -4z"/>
<path d="M7946 12862 c-2 -2 -75 -5 -162 -8 -320 -9 -463 -13 -624 -19 -91 -3
-227 -8 -303 -10 -76 -1 -139 -5 -141 -6 -1 -2 -20 -44 -40 -94 -21 -49 -46
-108 -56 -130 -10 -22 -89 -204 -175 -405 -86 -201 -163 -381 -172 -400 -8
-19 -19 -43 -24 -52 -13 -25 -1 -28 87 -23 144 8 408 18 496 19 49 0 88 3 88
6 0 3 48 6 108 6 59 1 186 5 282 9 96 4 193 8 214 8 37 1 40 4 64 57 14 30 26
60 28 65 1 6 17 42 35 80 17 39 33 75 35 80 3 12 99 236 122 284 9 20 17 38
18 41 1 6 18 48 42 100 9 19 16 37 17 40 3 7 29 70 92 213 31 70 53 130 49
134 -6 7 -74 11 -80 5z"/>
<path d="M9486 12263 c-1 -1 -53 -5 -116 -8 -63 -3 -144 -8 -180 -10 -147 -10
-278 -17 -332 -19 -32 -1 -60 -5 -64 -8 -3 -4 -18 -2 -34 2 -16 4 -31 6 -34 3
-6 -6 -29 -8 -196 -17 -52 -3 -126 -8 -165 -11 -38 -2 -115 -7 -170 -9 -89 -5
-101 -8 -117 -28 -10 -13 -18 -27 -18 -33 0 -5 -7 -23 -15 -39 -8 -15 -12 -32
-9 -37 3 -5 1 -9 -4 -9 -10 0 -48 -89 -44 -102 1 -5 -3 -8 -8 -8 -6 0 -10 -8
-10 -18 0 -10 -4 -22 -8 -28 -8 -8 -135 -300 -138 -314 0 -3 -11 -27 -23 -55
-12 -27 -28 -63 -36 -80 -7 -16 -21 -48 -31 -70 -10 -22 -18 -43 -19 -47 0 -3
-3 -10 -7 -14 -5 -4 -8 -16 -8 -26 0 -10 -5 -18 -11 -18 -6 0 -9 -7 -5 -15 3
-8 1 -15 -4 -15 -6 0 -10 -9 -10 -20 0 -11 -4 -20 -10 -20 -5 0 -10 -9 -10
-19 0 -11 -5 -23 -10 -26 -6 -4 -8 -11 -5 -16 4 -5 1 -9 -4 -9 -6 0 -11 -8
-11 -18 0 -10 -5 -23 -12 -30 -7 -7 -9 -12 -6 -12 3 0 -9 -30 -27 -67 -18 -37
-31 -71 -29 -75 3 -4 21 -5 42 -3 20 2 82 6 137 10 134 7 228 16 237 21 3 2 9
0 13 -6 4 -6 11 -8 16 -4 13 7 53 12 169 18 105 6 221 14 320 22 36 2 97 7
135 9 64 4 136 9 325 22 36 2 86 5 111 6 44 2 79 19 79 38 0 4 5 20 12 36 6
15 11 31 10 36 -1 4 3 7 8 7 6 0 10 7 10 15 0 9 8 30 17 48 9 18 18 34 18 37
1 3 9 22 18 44 9 21 17 42 17 47 0 5 5 9 12 9 6 0 9 3 6 6 -3 3 11 44 31 92
53 123 54 126 53 135 -1 4 2 7 7 7 7 0 14 15 26 60 3 11 47 107 61 132 8 15
14 29 14 30 -1 2 3 16 9 31 6 16 11 33 11 38 0 5 4 9 9 9 5 0 12 12 16 27 3
15 15 47 26 70 21 46 42 95 44 103 0 3 6 15 13 26 6 12 8 24 5 28 -3 3 -1 6 5
6 7 0 12 5 12 10 0 6 7 26 15 46 8 19 15 38 15 42 1 4 9 15 18 25 15 17 12 18
-72 15 -48 -2 -89 -4 -90 -5z"/>
<path d="M2506 12112 c-3 -2 -116 -9 -281 -17 -44 -2 -85 -4 -91 -4 -7 -1 -29
-40 -49 -88 -21 -49 -49 -113 -62 -143 -25 -57 -35 -81 -61 -140 -8 -19 -19
-43 -23 -52 -19 -37 -11 -43 53 -41 35 1 168 3 296 5 128 1 237 5 242 8 8 5
210 460 210 473 0 4 -230 4 -234 -1z"/>
<path d="M5567 11763 c-2 -1 -99 -5 -217 -9 -118 -3 -260 -8 -315 -10 -55 -2
-147 -5 -205 -7 l-105 -3 -15 -30 c-8 -16 -26 -54 -39 -84 -12 -30 -32 -74
-42 -97 -10 -24 -19 -45 -19 -48 0 -2 -13 -32 -29 -65 -16 -33 -27 -60 -25
-60 3 0 -1 -10 -8 -22 -7 -13 -11 -26 -10 -30 1 -5 -3 -8 -8 -8 -5 0 -9 -3 -8
-7 1 -5 -5 -21 -12 -38 -7 -16 -14 -32 -15 -35 -3 -7 -34 -81 -45 -105 -59
-132 -60 -134 -63 -170 -1 -13 3 -19 12 -17 8 2 94 5 192 8 97 2 262 6 366 9
103 3 257 7 341 9 84 2 154 5 155 7 2 2 18 40 36 84 19 44 44 103 56 130 58
130 255 594 255 600 0 5 -228 3 -233 -2z"/>
<path d="M3879 11356 c-2 -2 -26 -6 -54 -9 -60 -8 -107 -14 -200 -27 -38 -6
-90 -12 -115 -15 -25 -3 -56 -7 -70 -10 -37 -6 -120 -17 -160 -20 -19 -2 -35
-4 -35 -6 0 -1 -13 -3 -30 -4 -16 -2 -30 -4 -30 -5 0 -1 -16 -3 -35 -6 -76 -9
-73 -6 -135 -151 -32 -76 -70 -165 -85 -198 -15 -33 -40 -89 -55 -125 -15 -36
-36 -83 -45 -105 -27 -62 -40 -96 -40 -100 0 -3 28 -3 63 -1 34 3 62 5 62 7 0
1 18 3 40 4 22 2 42 4 45 5 3 1 19 3 35 5 17 1 32 3 35 4 3 1 32 4 65 7 53 4
100 10 100 14 0 0 29 3 65 5 36 3 79 7 95 9 59 9 150 19 174 20 23 0 25 4 82
131 5 11 63 145 128 298 102 237 123 294 100 273z"/>
<path d="M7217 11264 c-3 -3 -47 -7 -99 -9 -51 -2 -172 -7 -268 -10 -96 -4
-209 -9 -250 -11 -98 -5 -338 -15 -465 -19 -55 -1 -103 -3 -106 -4 -6 -1 -26
-44 -82 -176 -19 -44 -43 -100 -54 -125 -55 -122 -343 -797 -343 -804 0 -6
184 -2 445 9 39 2 140 6 225 9 85 4 211 9 280 12 146 6 280 11 332 13 41 1 44
5 105 151 19 47 46 109 59 138 13 29 24 55 24 57 0 3 14 35 31 72 17 38 34 77
38 88 5 11 16 38 26 60 10 22 53 123 97 225 43 101 85 198 93 215 17 36 45
106 45 111 0 1 -8 1 -18 -1 -41 -7 -88 -9 -98 -2 -6 3 -14 4 -17 1z"/>
<path d="M8938 10675 c-1 -2 -59 -6 -128 -9 -169 -9 -249 -13 -350 -21 -47 -3
-107 -8 -135 -10 -86 -6 -267 -17 -335 -20 -36 -2 -110 -6 -165 -9 -55 -4
-138 -9 -185 -11 -138 -8 -243 -15 -246 -18 -1 -1 -84 -193 -184 -427 -179
-417 -208 -485 -236 -545 -11 -25 -43 -98 -121 -283 -5 -11 12 -12 88 -7 118
9 198 14 269 18 31 2 61 6 67 10 6 4 14 3 18 -3 4 -6 10 -8 14 -6 4 3 45 7 92
11 46 3 100 8 119 10 19 2 91 6 160 10 190 11 211 12 265 19 28 3 106 9 175
12 69 4 148 8 175 9 28 2 50 4 50 5 0 1 17 3 37 4 20 0 41 6 46 11 8 8 60 126
237 540 7 17 20 46 28 65 9 19 73 168 142 330 70 162 129 298 131 301 4 7 -21
20 -28 14z"/>
<path d="M1927 10534 c-4 -3 -257 -21 -400 -28 -44 -3 -80 -6 -82 -8 -5 -6
-58 -123 -60 -133 -2 -5 -12 -30 -23 -55 -36 -79 -112 -259 -112 -264 0 -4
530 -1 586 3 7 1 22 27 35 59 12 31 28 60 33 64 6 4 8 8 3 8 -4 0 0 11 9 24 8
14 15 26 13 28 -1 2 8 25 19 52 12 27 22 50 22 51 0 1 6 18 14 36 8 19 14 38
14 43 0 5 4 12 9 15 8 6 43 89 43 103 0 5 -117 6 -123 2z"/>
<path d="M4925 10230 c-22 -3 -86 -5 -142 -5 -57 0 -103 -2 -103 -5 0 -3 -19
-4 -42 -2 -24 2 -47 3 -53 3 -65 -5 -383 -18 -488 -20 -29 -1 -39 -6 -46 -23
-5 -13 -21 -50 -35 -83 -15 -33 -32 -71 -38 -85 -30 -73 -37 -88 -51 -120 -8
-19 -29 -66 -46 -103 -17 -37 -31 -70 -31 -73 0 -3 -10 -26 -22 -52 -12 -26
-23 -51 -24 -57 -1 -5 -23 -56 -47 -112 -52 -117 -57 -107 53 -103 30 1 120 3
200 5 365 8 767 21 780 24 3 0 11 16 19 34 7 17 24 56 37 85 13 29 24 55 24
57 0 2 12 30 26 62 14 32 29 67 34 78 4 11 15 36 23 55 78 179 187 436 187
441 0 7 -153 7 -215 -1z"/>
<path d="M3165 9762 c-2 -3 -19 -6 -37 -8 -56 -7 -101 -13 -143 -19 -48 -8
-75 -11 -135 -19 -25 -3 -61 -8 -80 -11 -19 -3 -53 -7 -75 -10 -22 -3 -53 -7
-70 -10 -16 -3 -52 -8 -80 -11 -84 -9 -110 -13 -110 -14 0 -1 -8 -3 -19 -5
-26 -5 -27 -7 -75 -120 -23 -55 -48 -113 -56 -130 -46 -104 -175 -408 -175
-412 0 -2 19 -1 43 3 23 3 65 8 92 9 28 2 50 4 50 5 0 1 18 3 40 5 35 3 108
10 210 20 42 4 172 16 220 20 22 2 40 4 40 5 0 1 22 3 48 5 27 1 53 7 58 12 7
7 299 677 299 686 0 4 -41 3 -45 -1z"/>
<path d="M6668 9744 c-3 -2 -77 -7 -164 -10 -87 -3 -202 -7 -254 -9 -52 -2
-158 -7 -235 -10 -77 -3 -196 -8 -265 -10 -69 -3 -181 -7 -249 -10 -69 -3
-128 -8 -132 -12 -4 -5 -67 -145 -139 -313 -72 -168 -137 -318 -144 -335 -34
-74 -57 -128 -106 -245 -29 -69 -61 -142 -71 -162 l-19 -38 32 -1 c18 -1 35
-1 38 -1 14 1 415 14 555 18 88 3 219 7 290 9 72 3 193 6 270 8 l140 4 100
230 c114 263 107 247 230 533 51 118 101 235 112 260 29 64 35 87 25 94 -5 3
-11 3 -14 0z"/>
<path d="M8137 9133 c-1 -1 -49 -4 -107 -8 -156 -9 -238 -14 -310 -20 -36 -3
-110 -8 -165 -10 -55 -3 -131 -7 -170 -10 -64 -4 -111 -7 -340 -20 -44 -3
-123 -8 -175 -11 -52 -3 -104 -6 -115 -5 -17 0 -34 -34 -104 -197 -47 -108
-94 -219 -107 -247 -44 -101 -354 -825 -354 -828 0 -1 21 -2 48 0 26 1 47 3
47 4 0 2 40 6 165 13 192 12 255 16 310 21 57 4 211 14 315 20 33 2 85 5 115
9 30 3 99 8 153 11 55 3 103 7 107 10 5 3 11 1 15 -5 4 -6 11 -8 16 -4 5 3 19
7 32 9 29 5 206 17 234 16 17 0 27 14 56 82 45 106 344 800 367 852 10 22 37
85 60 140 23 55 51 117 61 138 14 27 16 37 7 39 -19 2 -159 3 -161 1z"/>
<path d="M4336 8643 c-1 -1 -83 -5 -182 -9 -172 -5 -228 -7 -574 -20 -85 -3
-166 -6 -179 -7 -22 -2 -34 -23 -103 -182 -43 -98 -78 -185 -78 -192 0 -7 -4
-13 -10 -13 -5 0 -10 -5 -10 -10 0 -6 -36 -96 -80 -199 -44 -104 -80 -191 -80
-194 0 -8 526 -1 539 7 6 4 11 4 11 -1 0 -4 19 -7 42 -5 24 1 131 4 238 6 107
3 205 5 217 5 18 1 33 21 38 51 0 3 12 30 26 60 14 30 36 82 50 115 13 33 28
63 34 67 5 4 7 8 2 8 -4 0 4 23 18 50 14 28 22 50 19 50 -4 0 1 9 11 20 10 11
15 20 11 20 -3 0 0 13 9 30 8 16 15 31 14 32 -2 2 4 14 11 28 8 14 15 27 15
30 2 6 13 33 45 105 36 82 43 100 44 107 1 3 4 10 9 14 20 20 4 30 -49 30 -30
-1 -57 -2 -58 -3z"/>
<path d="M5637 8143 c-4 -3 -60 -8 -125 -9 -64 -1 -191 -5 -282 -9 -199 -7
-392 -13 -478 -14 l-62 -1 -25 -56 c-14 -31 -25 -63 -25 -70 0 -8 -4 -14 -10
-14 -5 0 -10 -5 -10 -10 0 -10 -211 -507 -271 -638 -16 -35 -29 -66 -29 -69 0
-3 -7 -19 -15 -36 -8 -18 -32 -74 -54 -125 l-40 -93 157 6 c86 4 184 9 217 11
72 5 65 5 140 4 33 0 98 2 145 4 184 11 474 23 598 25 57 1 72 4 72 16 0 8 4
15 8 15 4 0 8 10 9 22 1 11 7 24 14 28 6 4 8 13 5 19 -4 6 -3 11 2 11 5 0 17
25 27 55 11 30 23 55 28 55 5 0 7 7 3 15 -3 8 -2 15 2 15 5 0 14 17 21 38 8
20 29 70 47 110 19 41 34 76 34 78 0 3 9 24 19 47 30 67 54 122 55 127 1 3 7
15 14 28 7 12 10 27 7 32 -3 6 -2 10 4 10 6 0 16 18 22 40 7 22 17 40 22 40 6
0 7 3 4 6 -4 4 0 19 7 33 23 44 51 115 49 123 -2 5 2 8 7 8 6 0 10 5 10 10 0
8 30 79 47 112 4 8 -327 2 -335 -7 -3 -2 -10 0 -17 5 -7 5 -15 7 -18 3z"/>
<path d="M7486 7543 c-1 -1 -44 -5 -96 -8 -52 -3 -129 -8 -170 -10 -41 -3
-127 -8 -190 -11 -129 -7 -195 -12 -195 -14 0 0 -41 -3 -90 -5 -50 -2 -129 -6
-175 -10 -166 -11 -296 -18 -352 -19 -32 -1 -58 -4 -58 -8 0 -4 -11 -3 -25 2
-14 5 -25 6 -25 1 0 -4 -11 -7 -24 -6 -25 3 -47 -7 -48 -21 0 -10 -8 -31 -37
-96 -11 -27 -17 -48 -13 -48 4 0 2 -4 -3 -8 -15 -11 -50 -89 -47 -104 1 -5 -2
-8 -7 -8 -5 0 -12 -11 -15 -25 -6 -23 -25 -68 -73 -175 -9 -19 -16 -41 -16
-47 0 -7 -4 -13 -8 -13 -7 0 -24 -49 -21 -62 1 -5 -2 -8 -8 -8 -5 0 -10 -4
-10 -9 0 -5 -8 -26 -17 -47 -9 -22 -17 -41 -18 -44 -1 -3 -11 -26 -23 -52 -12
-26 -22 -49 -22 -52 0 -2 -16 -39 -35 -80 -19 -42 -35 -78 -35 -81 0 -3 -9
-24 -19 -48 -27 -59 -34 -81 -33 -89 1 -5 -2 -8 -8 -8 -5 0 -10 -7 -10 -15 0
-8 -8 -29 -18 -47 -38 -69 -41 -67 61 -62 133 7 212 12 212 14 0 0 41 3 90 5
50 3 126 7 170 9 44 3 125 8 180 11 150 9 265 16 315 19 25 2 106 7 180 11 74
3 151 8 170 10 19 2 63 5 97 6 54 2 64 5 70 23 4 12 6 24 5 29 -1 4 2 7 7 7 7
0 43 79 46 100 0 3 6 15 13 26 6 12 8 24 5 28 -3 3 -2 6 4 6 6 0 13 10 17 23
3 12 6 23 6 24 1 2 17 38 36 80 46 103 55 124 65 148 4 11 21 49 37 85 16 36
30 70 32 75 8 29 15 43 34 69 11 16 15 27 9 23 -6 -4 -3 9 7 29 16 30 23 47
45 104 3 8 35 80 55 125 10 22 18 42 19 45 0 3 14 36 32 75 39 87 47 107 45
120 -1 8 -112 15 -120 8z"/>
<path d="M9397 7253 c-1 0 -69 -4 -152 -7 -378 -15 -440 -18 -717 -31 -70 -4
-165 -8 -210 -10 -376 -15 -506 -21 -519 -24 -4 0 -15 -22 -26 -48 -42 -97
-335 -779 -353 -818 -44 -99 -220 -513 -220 -518 0 -3 15 -4 33 -2 17 3 73 7
122 11 50 3 108 7 130 9 22 2 78 6 125 9 47 4 103 8 125 11 22 2 83 7 135 10
52 4 115 9 140 11 25 2 83 6 130 9 47 3 105 8 130 10 71 7 230 18 282 19 27 1
48 3 48 6 0 3 19 6 43 6 23 1 71 4 107 7 36 3 84 6 106 6 39 1 43 4 57 39 8
20 27 63 41 94 14 31 26 59 26 62 0 2 16 38 35 79 19 42 37 87 41 101 3 14 10
26 15 26 5 0 8 3 7 8 -2 11 16 56 96 235 19 42 32 77 29 77 -3 0 -1 6 5 13 8
10 262 592 262 601 0 3 -70 2 -73 -1z"/>
</g>
</svg>
